<svg width="115" height="85" viewBox="0 0 115 85" fill="none" xmlns="http://www.w3.org/2000/svg">
<path d="M91.8084 4.17023C105.115 10.9291 115.151 26.7637 114.998 41.71C114.775 56.6789 104.504 70.7143 92.7534 77.6554C80.9545 84.6898 67.7466 84.6072 51.9537 84.4901C36.209 84.2797 17.9277 83.9413 8.23807 73.8462C-1.47409 63.6803 -2.64275 43.8511 4.9659 30.2737C12.5037 16.7188 28.7481 9.43825 45.2411 4.65243C61.7116 -0.204199 78.4308 -2.56611 91.8084 4.17023Z" fill="#DB4724"/>
<path d="M88.4218 63.4917V63.4133C88.398 63.2498 88.3707 63.1067 88.3435 62.9705C88.2345 62.4595 88.105 62.0303 87.9824 61.6317C87.7098 60.7596 87.4169 59.9557 87.1682 59.2846C86.6504 57.8947 86.0611 56.4299 85.3661 54.8015C84.6712 53.1732 84.0239 51.7595 83.3699 50.4036C82.9645 49.5656 82.6102 48.8673 82.2559 48.2098C82.0243 47.7806 81.8267 47.4263 81.6257 47.0959V47.072C82.1175 45.9944 82.5043 44.8718 82.7805 43.72C83.1578 42.1404 83.3375 40.5201 83.3154 38.8963C83.2821 37.3033 83.0869 35.718 82.7328 34.1645C82.3926 32.6446 81.937 31.1527 81.3702 29.7019C80.2507 26.8666 78.8275 24.1608 77.1256 21.6318C75.4624 19.1254 73.6058 16.7529 71.5729 14.5359C70.4658 13.347 69.4097 12.3012 68.3401 11.3439C67.8666 10.9215 67.233 10.3696 66.5005 9.82799C66.3268 9.70195 66.1599 9.57591 65.9453 9.44305L65.9112 9.42261C65.6893 9.27244 65.4571 9.13812 65.2163 9.02064L65.0596 8.9491C64.9939 8.92058 64.9268 8.89556 64.8586 8.87415L64.77 8.8435H64.7359L64.6201 8.81284H64.5724L64.4089 8.77877C64.1352 8.74464 63.8583 8.74464 63.5845 8.77877H63.5436C63.4033 8.79444 63.2644 8.82063 63.128 8.85712C63.0361 8.88437 62.9475 8.91163 62.8419 8.95251C62.2969 9.17666 61.8201 9.53956 61.4588 10.0051C61.0932 10.4862 60.8058 11.022 60.6072 11.5926C60.4533 12.0175 60.3237 12.4509 60.2188 12.8905C60.1677 13.1187 60.1166 13.3504 60.0689 13.5718L59.3297 13.0608C58.5155 12.526 57.8206 12.107 57.1393 11.7357C56.7267 11.5062 56.3026 11.2981 55.8686 11.1123C55.6014 11.0004 55.3271 10.906 55.0477 10.8295C54.8472 10.7759 54.6435 10.7349 54.4379 10.7069H54.3936C54.0731 10.6751 53.7496 10.697 53.4363 10.7716H53.3921C53.2979 10.7909 53.2056 10.8182 53.1161 10.8534H53.0991C52.9207 10.9212 52.7495 11.0068 52.5881 11.1089C52.4009 11.2267 52.2282 11.3662 52.0737 11.5245C51.8908 11.7149 51.7297 11.9251 51.5934 12.1513C51.4247 12.4329 51.2821 12.7294 51.1676 13.037C50.9963 13.4966 50.854 13.9665 50.7417 14.4439C50.5464 15.2838 50.3941 16.1332 50.2853 16.9886C50.0843 18.5011 49.9446 20.109 49.8867 21.9145C49.7536 25.1937 49.9018 28.4783 50.3296 31.7322C50.5513 33.4251 50.9217 35.0951 51.4367 36.7229L51.4878 36.8762L50.8269 37.537C50.4863 37.8777 50.2171 38.2183 49.965 38.5079C48.8 39.8944 47.8121 41.2774 46.9979 42.4527C46.119 43.7234 45.2538 45.0485 44.351 46.4963C43.9173 47.2071 43.4982 47.9032 43.094 48.5845C42.6784 49.2931 42.2866 49.9472 41.8779 50.7613V50.7954C41.8404 50.8329 41.7825 50.884 41.7075 50.9453C41.4657 51.1429 41.1454 51.3609 40.9274 51.5108C40.2802 51.94 39.5648 52.359 39.03 52.6758C37.7355 53.4219 36.3831 54.1611 35.0749 54.8765C33.6612 55.6498 32.2032 56.4469 30.7656 57.2849C30.1388 57.6494 29.403 58.0923 28.6399 58.5999C28.2005 58.8928 27.8598 59.1415 27.5192 59.414C27.3028 59.5892 27.0958 59.7757 26.8992 59.9727C26.7663 60.099 26.6411 60.2333 26.5244 60.3747C26.4597 60.4564 26.3814 60.5723 26.2996 60.6983C26.2621 60.763 26.2247 60.8312 26.1838 60.9095L26.1395 60.9947L26.1191 61.0424L26.0203 61.2842C25.9862 61.3898 25.9521 61.4954 25.9283 61.6044C25.9046 61.701 25.8864 61.7988 25.8738 61.8974C25.8738 61.8974 25.8738 61.9281 25.8738 61.9315C25.8738 62.0064 25.8738 62.0848 25.8534 62.1495C25.8399 62.4329 25.8628 62.7168 25.9215 62.9943C26.0053 63.395 26.1489 63.7809 26.3473 64.1389C26.6208 64.6303 26.9512 65.0876 27.3318 65.5016C27.9471 66.1732 28.6146 66.7952 29.3281 67.3615C30.6489 68.4093 32.0448 69.3589 33.5045 70.2026C33.9065 70.4377 34.2744 70.6421 34.6287 70.826C34.983 71.01 35.402 71.2212 35.8925 71.4188C36.0186 71.4699 36.1548 71.521 36.332 71.5789L36.5261 71.6334C36.5641 71.6435 36.6028 71.6504 36.642 71.6538L37.0235 71.6981C37.2641 71.729 37.5065 71.7438 37.7491 71.7424H37.933C38.3759 71.7424 38.8153 71.6913 39.3127 71.63C40.9342 71.4222 42.3786 71.1292 44.1432 70.7715C45.7409 70.4309 47.325 70.0902 48.7966 69.7496L50.8405 69.2863C53.1843 68.7548 55.6097 68.203 57.9432 67.7703C61.0807 67.2287 64.1773 66.8063 67.141 66.5201C70.3534 66.2067 73.4602 66.0466 76.3762 66.0398C77.9125 66.0398 79.4421 66.0705 80.9819 66.1522C81.6632 66.1863 82.3956 66.234 83.2915 66.3021L84.4906 66.3907L85.1481 66.4316C85.3695 66.4316 85.6012 66.4486 85.9146 66.4316C86.0286 66.4291 86.1423 66.42 86.2552 66.4043L86.4188 66.3805H86.4801C86.5745 66.3622 86.6678 66.3383 86.7594 66.3089H86.8037C86.9524 66.263 87.0961 66.2025 87.2329 66.1284L87.267 66.1079C87.3692 66.0521 87.4661 65.9871 87.5565 65.9138L87.594 65.8831L87.6519 65.8388C87.7806 65.7285 87.895 65.6026 87.9926 65.4641C88.1664 65.2296 88.2958 64.9652 88.3741 64.684V64.6431V64.609C88.3946 64.5273 88.4116 64.4319 88.4218 64.3638C88.432 64.2956 88.4218 64.2309 88.4423 64.1798C88.4576 63.9503 88.4508 63.7199 88.4218 63.4917ZM54.0155 40.545L54.5537 40.0102C54.6695 39.9012 54.7785 39.7922 54.8944 39.6695C55.1374 39.4059 55.35 39.1156 55.528 38.8043C55.7728 38.3749 55.9302 37.9014 55.9913 37.411V37.3599C56.0006 37.2238 56.0006 37.0872 55.9913 36.9511V36.7399C55.9809 36.6254 55.9639 36.5117 55.9402 36.3992C55.9201 36.3004 55.8951 36.2026 55.8652 36.1063V36.0552L55.7835 35.8235C55.7256 35.6668 55.6676 35.5067 55.6165 35.3432C55.1828 33.9641 54.8716 32.5494 54.6866 31.1156C54.2966 28.1142 54.1621 25.0851 54.2846 22.061C54.3323 20.4122 54.4583 18.9474 54.6321 17.5848C54.7377 16.7944 54.8535 16.1336 54.9727 15.5613L55.0477 15.6021C55.6029 15.9019 56.2093 16.2834 56.9008 16.7263C57.8649 17.3361 58.7404 17.9799 59.5682 18.6272C59.5682 19.0053 59.5375 19.3834 59.5239 19.7616C59.466 21.5432 59.4523 22.9092 59.483 24.1901C59.5137 25.6617 59.6159 27.1708 59.7862 28.6663C59.8679 29.4362 59.9974 30.2061 60.1268 30.9215C60.2598 31.686 60.4315 32.4432 60.6412 33.1902C61.03 34.7762 61.7066 36.2772 62.6375 37.6188C62.8341 37.8895 63.1235 38.0784 63.4504 38.1496C63.7774 38.2207 64.119 38.169 64.4104 38.0044C64.7017 37.8398 64.9222 37.5738 65.03 37.257C65.1378 36.9403 65.1253 36.5949 64.9948 36.2868C64.5632 35.0629 64.2829 33.7907 64.1602 32.4987C64.0206 31.2417 63.9354 29.8995 63.9047 28.3836C63.8877 27.7023 63.8809 27.0039 63.8877 26.2988C63.8945 25.5936 63.8877 24.8953 63.915 24.1935C63.9524 22.5583 64.0035 21.2162 64.0751 19.9694C64.1159 19.2608 64.167 18.5556 64.2181 17.8471C64.2658 17.2441 64.3271 16.5321 64.4191 15.8406C64.4975 15.2615 64.5826 14.7505 64.6848 14.294C64.879 14.4541 65.08 14.6347 65.2912 14.8118C66.245 15.6566 67.233 16.6207 68.2277 17.687C70.1327 19.6908 71.8745 21.8438 73.4363 24.1254C74.2077 25.2561 74.9217 26.4249 75.5756 27.6273C76.2188 28.8167 76.7887 30.0442 77.2823 31.303C78.2881 33.7287 78.8389 36.3189 78.9073 38.9439C78.9269 40.2053 78.7884 41.4642 78.4951 42.6912C78.2037 43.9141 77.7536 45.0937 77.1563 46.1999L76.6964 47.055C76.6328 47.1744 76.6051 47.3096 76.6166 47.4444C76.6281 47.5792 76.6783 47.7077 76.7611 47.8147L77.3573 48.5845C77.5391 48.8283 77.7074 49.082 77.8615 49.3442C78.0216 49.6133 78.2021 49.9233 78.3929 50.2878C78.7063 50.8738 79.0435 51.5346 79.4148 52.3113C80.0382 53.6024 80.6651 54.9821 81.3259 56.5253C81.9868 58.0684 82.5591 59.4856 83.0735 60.8141C83.2268 61.2263 83.3597 61.5942 83.4789 61.9349C82.6102 61.8736 81.888 61.8259 81.2135 61.7918C79.6124 61.7066 77.9807 61.6624 76.3694 61.6692C73.2728 61.6692 70.1149 61.8429 66.722 62.1733C63.5981 62.4765 60.4777 62.9023 57.1836 63.4712C54.7138 63.9277 52.2883 64.4932 49.9446 65.0144L47.8462 65.4913C46.3847 65.832 44.8245 66.1727 43.2643 66.5133C41.7041 66.854 40.2189 67.1333 38.7915 67.3139C38.4684 67.3585 38.1432 67.3869 37.8172 67.399H37.5617L37.514 67.3786C37.2926 67.29 36.9996 67.1503 36.6454 66.9664C36.3524 66.8131 36.0424 66.6428 35.6983 66.4452C34.4303 65.7087 33.2167 64.8822 32.0669 63.972C31.543 63.5565 31.0521 63.1009 30.5987 62.6094L30.5715 62.5753C30.7179 62.4663 30.8814 62.3505 31.0586 62.2347C31.5798 61.894 32.1657 61.5261 32.956 61.0662C34.3187 60.2759 35.7324 59.4992 37.1087 58.7463C38.4849 57.9935 39.8339 57.2543 41.1965 56.4605C41.8779 56.0688 42.5932 55.6395 43.3291 55.149C43.6697 54.9139 44.0547 54.655 44.4532 54.328C44.6807 54.1473 44.8947 53.9504 45.0937 53.7387C45.1448 53.6842 45.2095 53.6092 45.2674 53.5377V53.5207C45.3258 53.4542 45.3793 53.3836 45.4275 53.3094C45.4786 53.2379 45.5263 53.1664 45.5808 53.0744L45.7579 52.7337C46.0986 52.0967 46.4938 51.395 46.848 50.792C47.2023 50.189 47.6247 49.4907 48.0472 48.8162C48.8988 47.4536 49.7504 46.1488 50.5782 44.9497C51.6002 43.4508 52.4791 42.3062 53.3035 41.3354C53.5215 41.0901 53.7395 40.8448 54.0155 40.545Z" fill="#FFE9E3"/>
</svg>
